<?xml version="1.0" encoding="UTF-8" standalone="no"?>
<!-- Created with Inkscape (http://www.inkscape.org/) -->

<svg
   xmlns:dc="http://purl.org/dc/elements/1.1/"
   xmlns:cc="http://creativecommons.org/ns#"
   xmlns:rdf="http://www.w3.org/1999/02/22-rdf-syntax-ns#"
   xmlns:svg="http://www.w3.org/2000/svg"
   xmlns="http://www.w3.org/2000/svg"
   xmlns:sodipodi="http://sodipodi.sourceforge.net/DTD/sodipodi-0.dtd"
   xmlns:inkscape="http://www.inkscape.org/namespaces/inkscape"
   width="8.8647127mm"
   height="11.125024mm"
   viewBox="0 0 8.8647127 11.125024"
   version="1.1"
   id="svg6582"
   inkscape:version="0.92.3 (2405546, 2018-03-11)"
   sodipodi:docname="black_knight.svg">
  <defs
     id="defs6576">
    <filter
       inkscape:collect="always"
       id="filter4054"
       x="-0.025609033"
       width="1.0512182"
       y="-0.16676886"
       height="1.3335377">
      <feGaussianBlur
         inkscape:collect="always"
         stdDeviation="2.40981"
         id="feGaussianBlur4056" />
    </filter>
  </defs>
  <sodipodi:namedview
     id="base"
     pagecolor="#ffffff"
     bordercolor="#666666"
     borderopacity="1.0"
     inkscape:pageopacity="0.0"
     inkscape:pageshadow="2"
     inkscape:zoom="0.35"
     inkscape:cx="231.03791"
     inkscape:cy="21.023662"
     inkscape:document-units="mm"
     inkscape:current-layer="layer1"
     showgrid="false"
     inkscape:window-width="1920"
     inkscape:window-height="1046"
     inkscape:window-x="-11"
     inkscape:window-y="-11"
     inkscape:window-maximized="1" />
  <metadata
     id="metadata6579">
    <rdf:RDF>
      <cc:Work
         rdf:about="">
        <dc:format>image/svg+xml</dc:format>
        <dc:type
           rdf:resource="http://purl.org/dc/dcmitype/StillImage" />
        <dc:title></dc:title>
      </cc:Work>
    </rdf:RDF>
  </metadata>
  <g
     inkscape:label="Ebene 1"
     inkscape:groupmode="layer"
     id="layer1"
     transform="translate(282.24485,-143.27082)">
    <g
       transform="matrix(0.28222223,0,0,0.28222223,-337.08451,101.33633)"
       id="g4193">
      <path
         d="m 201.15894,175.39646 c -1e-5,0.29335 0.22666,0.44001 0.68,0.44 m 22.92,7.24 h -20.96 c 0.08,-1.46666 0.38665,-2.78666 0.92,-3.96 0.42665,-0.87999 1.17332,-2.01332 2.24,-3.4 0.82665,-1.06665 1.37332,-1.82665 1.64,-2.28 0.47998,-0.82665 0.75998,-1.71998 0.84,-2.68 -1.57335,0.69335 -2.76002,1.45335 -3.56,2.28 -0.80001,0.80001 -1.53335,1.76001 -2.2,2.88 -0.34668,0.58668 -0.61335,1.00001 -0.8,1.24 -0.26668,0.24001 -0.53335,0.36001 -0.8,0.36 -1.33334,-0.13332 -2.06668,-0.59999 -2.2,-1.4 -0.29334,0.16001 -0.62668,0.24001 -1,0.24 -1.54667,1e-5 -2.81334,-0.98665 -3.8,-2.96 0.21333,-1.25332 0.83999,-2.99998 1.88,-5.24 0.23999,-0.53331 0.62666,-1.34665 1.16,-2.44 0.93332,-1.91998 1.51999,-3.14664 1.76,-3.68 0.63999,-1.41331 1.10666,-2.69331 1.4,-3.84 0.08,-0.47997 0.11999,-0.8933 0.12,-1.24 -1e-5,-0.18664 -0.10668,-1.10663 -0.32,-2.76 h 0.08 0.12 c 0.0533,3e-5 0.10666,3e-5 0.16,0 l 0.04,-0.04 c 1.46665,3e-5 3.01332,0.45337 4.64,1.36 0.34665,0.21337 0.51998,0.33337 0.52,0.36 0.90665,-1.5733 1.65332,-2.35997 2.24,-2.36 0.71998,0.37337 1.30665,0.85337 1.76,1.44 0.31998,0.5067 0.65331,1.37336 1,2.6 0.26664,-0.0533 0.54664,-0.08 0.84,-0.08 2.69331,3e-5 5.33331,1.7067 7.92,5.12 3.03997,3.97335 4.55997,9.40002 4.56,16.28 -3e-5,1.38667 -0.0667,2.78667 -0.2,4.2"
         id="path3885-2"
         inkscape:connector-curvature="0"
         sodipodi:nodetypes="cccccccccccccccccccccccccccccccccc"
         style="font-style:normal;font-variant:normal;font-weight:normal;font-stretch:normal;font-size:40px;line-height:125%;font-family:'Chess Cases';-inkscape-font-specification:'Chess Cases';text-align:start;letter-spacing:0px;word-spacing:0px;writing-mode:lr-tb;text-anchor:start;fill:#000000;fill-opacity:0.50196078;stroke:none;filter:url(#filter4054)" />
      <path
         d="m 201.15894,175.39646 c -1e-5,0.29335 0.22666,0.44001 0.68,0.44 m 22.92,7.24 h -20.96 c 0.08,-1.46666 0.38665,-2.78666 0.92,-3.96 0.42665,-0.87999 1.17332,-2.01332 2.24,-3.4 0.82665,-1.06665 1.37332,-1.82665 1.64,-2.28 0.47998,-0.82665 0.75998,-1.71998 0.84,-2.68 -1.57335,0.69335 -2.76002,1.45335 -3.56,2.28 -0.80001,0.80001 -1.53335,1.76001 -2.2,2.88 -0.34668,0.58668 -0.61335,1.00001 -0.8,1.24 -0.26668,0.24001 -0.53335,0.36001 -0.8,0.36 -1.33334,-0.13332 -2.06668,-0.59999 -2.2,-1.4 -0.29334,0.16001 -0.62668,0.24001 -1,0.24 -1.54667,1e-5 -2.81334,-0.98665 -3.8,-2.96 0.21333,-1.25332 0.83999,-2.99998 1.88,-5.24 0.23999,-0.53331 0.62666,-1.34665 1.16,-2.44 0.93332,-1.91998 1.51999,-3.14664 1.76,-3.68 0.63999,-1.41331 1.10666,-2.69331 1.4,-3.84 0.08,-0.47997 0.11999,-0.8933 0.12,-1.24 -1e-5,-0.18664 -0.10668,-1.10663 -0.32,-2.76 h 0.08 0.12 c 0.0533,3e-5 0.10666,3e-5 0.16,0 l 0.04,-0.04 c 1.46665,3e-5 3.01332,0.45337 4.64,1.36 0.34665,0.21337 0.51998,0.33337 0.52,0.36 0.90665,-1.5733 1.65332,-2.35997 2.24,-2.36 0.71998,0.37337 1.30665,0.85337 1.76,1.44 0.31998,0.5067 0.65331,1.37336 1,2.6 0.26664,-0.0533 0.54664,-0.08 0.84,-0.08 2.69331,3e-5 5.33331,1.7067 7.92,5.12 3.03997,3.97335 4.55997,9.40002 4.56,16.28 -3e-5,1.38667 -0.0667,2.78667 -0.2,4.2"
         id="path3885"
         inkscape:connector-curvature="0"
         sodipodi:nodetypes="cccccccccccccccccccccccccccccccccc"
         style="font-style:normal;font-variant:normal;font-weight:normal;font-stretch:normal;font-size:40px;line-height:125%;font-family:'Chess Cases';-inkscape-font-specification:'Chess Cases';text-align:start;letter-spacing:0px;word-spacing:0px;writing-mode:lr-tb;text-anchor:start;fill:#462500;fill-opacity:1;stroke:none" />
      <path
         d="m 198.67894,171.27646 c 0.47999,1e-5 0.71999,0.32001 0.72,0.96 -1e-5,0.82668 -0.41334,1.24001 -1.24,1.24 0.0533,1e-5 -1e-5,-0.0133 -0.16,-0.04 h -0.16 c -0.13334,-0.13332 -0.20001,-0.38666 -0.2,-0.76 -1e-5,-0.93332 0.34666,-1.39999 1.04,-1.4 m 3.32,-6.12 c -0.26668,-0.18665 -0.40001,-0.46665 -0.4,-0.84 -1e-5,-0.61331 0.31999,-1.18665 0.96,-1.72 0.63999,-0.53331 1.27999,-0.79998 1.92,-0.8 0.34665,2e-5 0.67998,0.0933 1,0.28 0.10665,0.13335 0.15998,0.26669 0.16,0.4 -2e-5,0.56002 -0.40002,1.16002 -1.2,1.8 -0.80001,0.61335 -1.52001,0.92002 -2.16,0.92 h -0.04 c -0.0533,-0.0267 -0.0933,-0.04 -0.12,-0.04 h -0.08 -0.04 m 0.68,-9.36 c 0.13332,0.32003 0.19999,0.62669 0.2,0.92 -1e-5,0.10669 -0.04,0.37336 -0.12,0.8 h 0.04 c 0.18665,-0.0266 0.59999,-0.15997 1.24,-0.4 0.29332,-0.0533 0.58665,-0.18664 0.88,-0.4 -0.50668,-0.29331 -0.86668,-0.47997 -1.08,-0.56 -0.21335,-0.08 -0.58668,-0.19997 -1.12,-0.36 h -0.04 m -5.92,17.16 c 0.13333,0.53334 0.45333,1.00001 0.96,1.4 0.50666,0.37334 1.02666,0.56001 1.56,0.56 h 0.12 c 0.13332,1e-5 0.47999,-0.18666 1.04,-0.56 0.26666,-0.15999 0.45332,-0.23999 0.56,-0.24 0.0267,0.0267 0.08,0.04 0.16,0.04 l 0.04,0.04 c 0.15999,1e-5 0.23999,0.08 0.24,0.24 -1e-5,0.0533 -0.0533,0.20001 -0.16,0.44 -0.08,0.24001 -0.12001,0.41334 -0.12,0.52 -1e-5,0.29334 0.22666,0.44001 0.68,0.44 0.08,-0.0267 0.49332,-0.61333 1.24,-1.76 0.98665,-1.46666 2.15998,-2.66665 3.52,-3.6 0.79998,-0.58665 1.71998,-1.10665 2.76,-1.56 0.0266,-0.29332 0.14665,-0.78665 0.36,-1.48 0.39998,-1.30665 0.93331,-2.38665 1.6,-3.24 0.29331,-0.37331 0.55998,-0.55998 0.8,-0.56 0.08,2e-5 0.17331,0.04 0.28,0.12 0.13331,0.08 0.19998,0.25335 0.2,0.52 -2e-5,0.26669 -0.16002,0.82668 -0.48,1.68 -0.50669,1.30668 -0.76002,2.26668 -0.76,2.88 -2e-5,0.18668 0.0266,0.40001 0.08,0.64 -2e-5,2.37334 -1.00002,4.85334 -3,7.44 -1.30668,1.73334 -2.04002,3.17334 -2.2,4.32 h 16.48 c 0.1333,-1.17333 0.19997,-2.30666 0.2,-3.4 -3e-5,-5.35999 -1.32003,-9.89332 -3.96,-13.6 -0.69336,-0.98665 -1.52003,-1.93331 -2.48,-2.84 -1.30669,-1.22664 -2.36002,-1.83998 -3.16,-1.84 -0.0267,0.0267 -0.0534,0.04 -0.08,0.04 h -0.12 c -0.66669,-0.08 -1.04002,-0.11998 -1.12,-0.12 -0.24002,2e-5 -0.45335,0.0267 -0.64,0.08 -0.0533,2e-5 -0.13335,0.0134 -0.24,0.04 -0.13335,2e-5 -0.22669,2e-5 -0.28,0 -0.0533,2e-5 -0.13335,2e-5 -0.24,0 -0.13335,-0.0266 -0.22669,-0.04 -0.28,-0.04 -0.24002,-0.08 -0.44002,-0.42664 -0.6,-1.04 -0.08,-0.45331 -0.22669,-1.10664 -0.44,-1.96 -0.08,-0.29331 -0.24002,-0.55997 -0.48,-0.8 -0.42668,1.25336 -1.66668,2.18669 -3.72,2.8 -1.12001,0.34669 -1.88001,0.69336 -2.28,1.04 -0.34668,1.14669 -1.44001,3.50669 -3.28,7.08 -0.29334,0.56002 -0.93334,1.90668 -1.92,4.04 -0.48001,0.98668 -0.76001,1.73334 -0.84,2.24 m 28,10.12 h -20.96 c 0.08,-1.46666 0.38665,-2.78666 0.92,-3.96 0.42665,-0.87999 1.17332,-2.01333 2.24,-3.4 0.82665,-1.06666 1.37332,-1.82666 1.64,-2.28 0.47998,-0.82666 0.75998,-1.71999 0.84,-2.68 -1.57335,0.69335 -2.76002,1.45334 -3.56,2.28 -0.80001,0.80001 -1.53335,1.76001 -2.2,2.88 -0.34668,0.58667 -0.61335,1.00001 -0.8,1.24 -0.26668,0.24001 -0.53335,0.36001 -0.8,0.36 -1.33334,-0.13333 -2.06668,-0.59999 -2.2,-1.4 -0.29334,0.16001 -0.62668,0.24001 -1,0.24 -1.54667,1e-5 -2.81334,-0.98666 -3.8,-2.96 0.21333,-1.25332 0.83999,-2.99999 1.88,-5.24 0.23999,-0.53332 0.62666,-1.34665 1.16,-2.44 0.93332,-1.91998 1.51999,-3.14665 1.76,-3.68 0.63999,-1.41331 1.10666,-2.69331 1.4,-3.84 0.08,-0.47997 0.11999,-0.89331 0.12,-1.24 -1e-5,-0.18664 -0.10668,-1.10664 -0.32,-2.76 h 0.08 0.12 c 0.0533,3e-5 0.10666,3e-5 0.16,0 l 0.04,-0.04 c 1.46665,3e-5 3.01332,0.45336 4.64,1.36 0.34665,0.21336 0.51998,0.33336 0.52,0.36 0.90665,-1.5733 1.65332,-2.35997 2.24,-2.36 0.71998,0.37336 1.30665,0.85336 1.76,1.44 0.31998,0.50669 0.65331,1.37336 1,2.6 0.26664,-0.0533 0.54664,-0.08 0.84,-0.08 2.69331,3e-5 5.33331,1.70669 7.92,5.12 3.03997,3.97335 4.55997,9.40001 4.56,16.28 -3e-5,1.38667 -0.0667,2.78667 -0.2,4.2"
         id="path3898"
         inkscape:connector-curvature="0"
         style="font-style:normal;font-variant:normal;font-weight:normal;font-stretch:normal;font-size:40px;line-height:125%;font-family:'Chess Cases';-inkscape-font-specification:'Chess Cases';text-align:start;letter-spacing:0px;word-spacing:0px;writing-mode:lr-tb;text-anchor:start;fill:#ffffff;fill-opacity:1;stroke:none" />
    </g>
  </g>
</svg>
