<?xml version="1.0" encoding="UTF-8" standalone="no"?>
<!-- Created with Inkscape (http://www.inkscape.org/) -->

<svg
   xmlns:dc="http://purl.org/dc/elements/1.1/"
   xmlns:cc="http://creativecommons.org/ns#"
   xmlns:rdf="http://www.w3.org/1999/02/22-rdf-syntax-ns#"
   xmlns:svg="http://www.w3.org/2000/svg"
   xmlns="http://www.w3.org/2000/svg"
   xmlns:sodipodi="http://sodipodi.sourceforge.net/DTD/sodipodi-0.dtd"
   xmlns:inkscape="http://www.inkscape.org/namespaces/inkscape"
   width="7.4525294mm"
   height="11.034698mm"
   viewBox="0 0 7.4525294 11.034698"
   version="1.1"
   id="svg6544"
   inkscape:version="0.92.3 (2405546, 2018-03-11)"
   sodipodi:docname="black_rook.svg">
  <defs
     id="defs6538">
    <filter
       inkscape:collect="always"
       id="filter4054"
       x="-0.025609033"
       width="1.0512182"
       y="-0.16676886"
       height="1.3335377">
      <feGaussianBlur
         inkscape:collect="always"
         stdDeviation="2.40981"
         id="feGaussianBlur4056" />
    </filter>
  </defs>
  <sodipodi:namedview
     id="base"
     pagecolor="#ffffff"
     bordercolor="#666666"
     borderopacity="1.0"
     inkscape:pageopacity="0.0"
     inkscape:pageshadow="2"
     inkscape:zoom="0.35"
     inkscape:cx="228.36924"
     inkscape:cy="20.85297"
     inkscape:document-units="mm"
     inkscape:current-layer="layer1"
     showgrid="false"
     inkscape:window-width="1920"
     inkscape:window-height="1046"
     inkscape:window-x="-11"
     inkscape:window-y="-11"
     inkscape:window-maximized="1" />
  <metadata
     id="metadata6541">
    <rdf:RDF>
      <cc:Work
         rdf:about="">
        <dc:format>image/svg+xml</dc:format>
        <dc:type
           rdf:resource="http://purl.org/dc/dcmitype/StillImage" />
        <dc:title></dc:title>
      </cc:Work>
    </rdf:RDF>
  </metadata>
  <g
     inkscape:label="Ebene 1"
     inkscape:groupmode="layer"
     id="layer1"
     transform="translate(281.53876,-143.31598)">
    <g
       transform="matrix(0.28222223,0,0,0.28222223,-324.9756,101.03153)"
       id="g4188">
      <path
         d="m 155.51334,184.03646 -0.96,-0.96 v -3.44 l 5.12,-5.16 v -10 l -4.4,-3.84 v -4.52 l 1.44,-1.4 h 4.48 l 0.88,0.84 v 1.28 h 1.44 v -1.28 l 0.84,-0.84 h 5.52 l 0.84,0.84 v 1.28 h 1.4 v -1.28 l 0.88,-0.84 h 4.52 l 1.44,1.4 v 4.52 l -4.4,3.84 v 10 l 5.12,5.16 v 3.44 l -0.96,0.96 h -23.2"
         id="path3883-4"
         inkscape:connector-curvature="0"
         sodipodi:nodetypes="ccccccccccccccccccccccccccccc"
         style="font-style:normal;font-variant:normal;font-weight:normal;font-stretch:normal;font-size:40px;line-height:125%;font-family:'Chess Cases';-inkscape-font-specification:'Chess Cases';text-align:start;letter-spacing:0px;word-spacing:0px;writing-mode:lr-tb;text-anchor:start;fill:#000000;fill-opacity:0.50196078;stroke:none;filter:url(#filter4054)" />
      <path
         d="m 155.51334,184.03646 -0.96,-0.96 v -3.44 l 5.12,-5.16 v -10 l -4.4,-3.84 v -4.52 l 1.44,-1.4 h 4.48 l 0.88,0.84 v 1.28 h 1.44 v -1.28 l 0.84,-0.84 h 5.52 l 0.84,0.84 v 1.28 h 1.4 v -1.28 l 0.88,-0.84 h 4.52 l 1.44,1.4 v 4.52 l -4.4,3.84 v 10 l 5.12,5.16 v 3.44 l -0.96,0.96 h -23.2"
         id="path3883"
         inkscape:connector-curvature="0"
         sodipodi:nodetypes="ccccccccccccccccccccccccccccc"
         style="font-style:normal;font-variant:normal;font-weight:normal;font-stretch:normal;font-size:40px;line-height:125%;font-family:'Chess Cases';-inkscape-font-specification:'Chess Cases';text-align:start;letter-spacing:0px;word-spacing:0px;writing-mode:lr-tb;text-anchor:start;fill:#462500;fill-opacity:1;stroke:none" />
      <path
         d="m 161.39334,164.63646 v 8.88 h 11.4 v -8.88 h -11.4 m -5.88,19.4 -0.96,-0.96 v -3.44 l 5.12,-5.16 v -10 l -4.4,-3.84 v -4.52 l 1.44,-1.4 h 4.48 l 0.88,0.84 v 1.28 h 1.44 v -1.28 l 0.84,-0.84 h 5.52 l 0.84,0.84 v 1.28 h 1.4 v -1.28 l 0.88,-0.84 h 4.52 l 1.44,1.4 v 4.52 l -4.4,3.84 v 10 l 5.12,5.16 v 3.44 l -0.96,0.96 h -23.2 m 0.8,-3.92 v 1.92 h 21.6 v -1.92 h -21.6 m 4.88,-4.96 -3.28,3.2 h 18.4 l -3.28,-3.2 h -11.84 m 4,-18.36 v 1.28 l -0.72,0.72 h -3.24 l -0.76,-0.72 v -1.36 h -2.8 l -0.64,0.68 v 2.8 l 3.4,2.76 h 13.36 l 3.4,-2.76 v -2.8 l -0.64,-0.68 h -2.8 v 1.36 l -0.76,0.72 h -3.24 l -0.72,-0.72 v -1.28 h -3.84"
         id="path3896"
         inkscape:connector-curvature="0"
         style="font-style:normal;font-variant:normal;font-weight:normal;font-stretch:normal;font-size:40px;line-height:125%;font-family:'Chess Cases';-inkscape-font-specification:'Chess Cases';text-align:start;letter-spacing:0px;word-spacing:0px;writing-mode:lr-tb;text-anchor:start;fill:#ffffff;fill-opacity:1;stroke:none" />
    </g>
  </g>
</svg>
