<?xml version="1.0" encoding="UTF-8" standalone="no"?>
<!-- Created with Inkscape (http://www.inkscape.org/) -->

<svg
   xmlns:dc="http://purl.org/dc/elements/1.1/"
   xmlns:cc="http://creativecommons.org/ns#"
   xmlns:rdf="http://www.w3.org/1999/02/22-rdf-syntax-ns#"
   xmlns:svg="http://www.w3.org/2000/svg"
   xmlns="http://www.w3.org/2000/svg"
   xmlns:sodipodi="http://sodipodi.sourceforge.net/DTD/sodipodi-0.dtd"
   xmlns:inkscape="http://www.inkscape.org/namespaces/inkscape"
   width="10.288763mm"
   height="12.163761mm"
   viewBox="0 0 10.288763 12.163761"
   version="1.1"
   id="svg6506"
   inkscape:version="0.92.3 (2405546, 2018-03-11)"
   sodipodi:docname="black_queen.svg">
  <defs
     id="defs6500">
    <filter
       inkscape:collect="always"
       id="filter4054"
       x="-0.025609033"
       width="1.0512182"
       y="-0.16676886"
       height="1.3335377">
      <feGaussianBlur
         inkscape:collect="always"
         stdDeviation="2.40981"
         id="feGaussianBlur4056" />
    </filter>
  </defs>
  <sodipodi:namedview
     id="base"
     pagecolor="#ffffff"
     bordercolor="#666666"
     borderopacity="1.0"
     inkscape:pageopacity="0.0"
     inkscape:pageshadow="2"
     inkscape:zoom="0.35"
     inkscape:cx="233.72904"
     inkscape:cy="22.986626"
     inkscape:document-units="mm"
     inkscape:current-layer="layer1"
     showgrid="false"
     inkscape:window-width="1920"
     inkscape:window-height="1046"
     inkscape:window-x="-11"
     inkscape:window-y="-11"
     inkscape:window-maximized="1" />
  <metadata
     id="metadata6503">
    <rdf:RDF>
      <cc:Work
         rdf:about="">
        <dc:format>image/svg+xml</dc:format>
        <dc:type
           rdf:resource="http://purl.org/dc/dcmitype/StillImage" />
        <dc:title></dc:title>
      </cc:Work>
    </rdf:RDF>
  </metadata>
  <g
     inkscape:label="Ebene 1"
     inkscape:groupmode="layer"
     id="layer1"
     transform="translate(282.95688,-142.75145)">
    <g
       transform="matrix(0.28222223,0,0,0.28222223,-312.94843,101.47744)"
       id="g4183">
      <path
         d="m 124.51739,151.63646 c 0.77331,4e-5 1.42664,0.28004 1.96,0.84 0.53331,0.53337 0.79998,1.1867 0.8,1.96 -2e-5,0.24003 -0.13336,0.6667 -0.4,1.28 -0.29336,0.7467 -0.45336,1.20003 -0.48,1.36 -0.13336,0.53336 -0.20002,1.25336 -0.2,2.16 -2e-5,0.6667 0.0933,1.70669 0.28,3.12 0.13331,1.09336 0.39998,2.46669 0.8,4.12 1.78664,-3.78664 2.67997,-6.63997 2.68,-8.56 -3e-5,-0.4533 -0.0667,-0.95997 -0.2,-1.52 -0.0534,-0.2933 -0.08,-0.50663 -0.08,-0.64 -3e-5,-0.7733 0.26664,-1.42663 0.8,-1.96 0.55997,-0.55996 1.21331,-0.83996 1.96,-0.84 0.7733,4e-5 1.43997,0.28004 2,0.84 0.55997,0.53337 0.83997,1.1867 0.84,1.96 -3e-5,0.88003 -0.29336,1.56003 -0.88,2.04 -0.72003,0.45336 -1.16003,1.2667 -1.32,2.44 -0.0534,0.50669 -0.08,1.16003 -0.08,1.96 -3e-5,1.04003 0.08,2.44002 0.24,4.2 2.15997,-2.18664 3.23997,-3.99997 3.24,-5.44 -3e-5,-0.21331 -0.0534,-0.58664 -0.16,-1.12 -0.0534,-0.39997 -0.08,-0.67997 -0.08,-0.84 -3e-5,-0.74664 0.26663,-1.39997 0.8,-1.96 0.55997,-0.55997 1.2133,-0.83997 1.96,-0.84 0.7733,3e-5 1.43996,0.28003 2,0.84 0.55996,0.56003 0.83996,1.21336 0.84,1.96 -4e-5,1.36003 -0.77337,2.38669 -2.32,3.08 -0.0534,0.96003 -0.20004,2.06669 -0.44,3.32 -0.13337,0.77336 -0.48003,2.24002 -1.04,4.4 l -0.32,1.32 c -3e-5,0.48002 -0.53337,1.26668 -1.6,2.36 -1.41336,1.44001 -2.12003,2.56001 -2.12,3.36 -3e-5,0.32001 0.15997,0.81334 0.48,1.48 0.4533,0.93334 0.6933,1.42668 0.72,1.48 0.1333,0.37334 0.19997,0.82667 0.2,1.36 -3e-5,0.08 -0.0134,0.20001 -0.04,0.36 -0.0267,0.13334 -0.04,0.24001 -0.04,0.32 v 0.08 l 0.04,0.04 c -3e-5,0.82667 -1.7067,1.4 -5.12,1.72 -1.49336,0.13334 -2.68002,0.21334 -3.56,0.24 -0.98669,0.0267 -1.72002,0.04 -2.2,0.04 -0.08,0 -0.33335,-0.0133 -0.76,-0.04 -0.50669,-0.0267 -0.97335,-0.04 -1.4,-0.04 -3.06668,-0.08 -5.45335,-0.34666 -7.16,-0.8 -1.01334,-0.29333 -1.52001,-0.66666 -1.52,-1.12 l 0.04,-0.04 v -0.08 c -1e-5,-0.0267 -0.0133,-0.08 -0.04,-0.16 -1e-5,-0.08 -1e-5,-0.14666 0,-0.2 v -0.32 c -1e-5,-0.74666 0.25332,-1.63999 0.76,-2.68 0.37332,-0.77332 0.55999,-1.31999 0.56,-1.64 -1e-5,-0.55999 -0.28001,-1.18665 -0.84,-1.88 -0.56001,-0.61332 -1.37334,-1.54665 -2.44,-2.8 -0.26667,-0.37332 -0.40001,-0.71998 -0.4,-1.04 -0.37334,-1.49331 -0.74667,-2.98665 -1.12,-4.48 -0.37334,-1.73331 -0.60001,-3.25331 -0.68,-4.56 -1.54667,-0.69331 -2.32,-1.71997 -2.32,-3.08 0,-0.74664 0.28,-1.39997 0.84,-1.96 0.56,-0.55997 1.21333,-0.83997 1.96,-0.84 0.77333,3e-5 1.42666,0.28003 1.96,0.84 0.55999,0.56003 0.83999,1.21336 0.84,1.96 -1e-5,0.13336 -0.0267,0.41336 -0.08,0.84 -0.10668,0.53336 -0.16001,0.90669 -0.16,1.12 -1e-5,1.44003 1.06666,3.25336 3.2,5.44 0.18665,-1.75998 0.27999,-3.15997 0.28,-4.2 -10e-6,-1.57331 -0.14668,-2.66664 -0.44,-3.28 -0.13334,-0.26664 -0.28001,-0.4933 -0.44,-0.68 -0.10668,-0.10664 -0.28001,-0.26664 -0.52,-0.48 -0.34668,-0.2133 -0.57334,-0.46664 -0.68,-0.76 -0.16001,-0.2133 -0.24001,-0.62663 -0.24,-1.24 -1e-5,-0.7733 0.27999,-1.42663 0.84,-1.96 0.55999,-0.55996 1.22666,-0.83996 2,-0.84 0.77332,4e-5 1.42665,0.28004 1.96,0.84 0.55999,0.53337 0.83998,1.1867 0.84,1.96 -2e-5,0.1067 -0.0267,0.32003 -0.08,0.64 -0.13335,0.56003 -0.20001,1.0667 -0.2,1.52 -1e-5,1.89336 0.89332,4.74669 2.68,8.56 0.71998,-3.03998 1.07998,-5.45331 1.08,-7.24 -2e-5,-1.30664 -0.25335,-2.5733 -0.76,-3.8 -0.21335,-0.4533 -0.32002,-0.78663 -0.32,-1 -2e-5,-0.7733 0.27998,-1.42663 0.84,-1.96 0.55998,-0.55996 1.21331,-0.83996 1.96,-0.84"
         id="path3881-2"
         inkscape:connector-curvature="0"
         sodipodi:nodetypes="ccccccccccccccccccccccccccccccccccccsccccsccccccccccccccccsccccccccccccccccccccccccc"
         style="font-style:normal;font-variant:normal;font-weight:normal;font-stretch:normal;font-size:40px;line-height:125%;font-family:'Chess Cases';-inkscape-font-specification:'Chess Cases';text-align:start;letter-spacing:0px;word-spacing:0px;writing-mode:lr-tb;text-anchor:start;fill:#000000;fill-opacity:0.50196078;stroke:none;filter:url(#filter4054)" />
      <path
         d="m 124.51739,151.63646 c 0.77331,4e-5 1.42664,0.28004 1.96,0.84 0.53331,0.53337 0.79998,1.1867 0.8,1.96 -2e-5,0.24003 -0.13336,0.6667 -0.4,1.28 -0.29336,0.7467 -0.45336,1.20003 -0.48,1.36 -0.13336,0.53336 -0.20002,1.25336 -0.2,2.16 -2e-5,0.6667 0.0933,1.70669 0.28,3.12 0.13331,1.09336 0.39998,2.46669 0.8,4.12 1.78664,-3.78664 2.67997,-6.63997 2.68,-8.56 -3e-5,-0.4533 -0.0667,-0.95997 -0.2,-1.52 -0.0534,-0.2933 -0.08,-0.50663 -0.08,-0.64 -3e-5,-0.7733 0.26664,-1.42663 0.8,-1.96 0.55997,-0.55996 1.21331,-0.83996 1.96,-0.84 0.7733,4e-5 1.43997,0.28004 2,0.84 0.55997,0.53337 0.83997,1.1867 0.84,1.96 -3e-5,0.88003 -0.29336,1.56003 -0.88,2.04 -0.72003,0.45336 -1.16003,1.2667 -1.32,2.44 -0.0534,0.50669 -0.08,1.16003 -0.08,1.96 -3e-5,1.04003 0.08,2.44002 0.24,4.2 2.15997,-2.18664 3.23997,-3.99997 3.24,-5.44 -3e-5,-0.21331 -0.0534,-0.58664 -0.16,-1.12 -0.0534,-0.39997 -0.08,-0.67997 -0.08,-0.84 -3e-5,-0.74664 0.26663,-1.39997 0.8,-1.96 0.55997,-0.55997 1.2133,-0.83997 1.96,-0.84 0.7733,3e-5 1.43996,0.28003 2,0.84 0.55996,0.56003 0.83996,1.21336 0.84,1.96 -4e-5,1.36003 -0.77337,2.38669 -2.32,3.08 -0.0534,0.96003 -0.20004,2.06669 -0.44,3.32 -0.13337,0.77336 -0.48003,2.24002 -1.04,4.4 l -0.32,1.32 c -3e-5,0.48002 -0.53337,1.26668 -1.6,2.36 -1.41336,1.44001 -2.12003,2.56001 -2.12,3.36 -3e-5,0.32001 0.15997,0.81334 0.48,1.48 0.4533,0.93334 0.6933,1.42668 0.72,1.48 0.1333,0.37334 0.19997,0.82667 0.2,1.36 -3e-5,0.08 -0.0134,0.20001 -0.04,0.36 -0.0267,0.13334 -0.04,0.24001 -0.04,0.32 v 0.08 l 0.04,0.04 c -3e-5,0.82667 -1.7067,1.4 -5.12,1.72 -1.49336,0.13334 -2.68002,0.21334 -3.56,0.24 -0.98669,0.0267 -1.72002,0.04 -2.2,0.04 -0.08,0 -0.33335,-0.0133 -0.76,-0.04 -0.50669,-0.0267 -0.97335,-0.04 -1.4,-0.04 -3.06668,-0.08 -5.45335,-0.34666 -7.16,-0.8 -1.01334,-0.29333 -1.52001,-0.66666 -1.52,-1.12 l 0.04,-0.04 v -0.08 c -1e-5,-0.0267 -0.0133,-0.08 -0.04,-0.16 -1e-5,-0.08 -1e-5,-0.14666 0,-0.2 v -0.32 c -1e-5,-0.74666 0.25332,-1.63999 0.76,-2.68 0.37332,-0.77332 0.55999,-1.31999 0.56,-1.64 -1e-5,-0.55999 -0.28001,-1.18665 -0.84,-1.88 -0.56001,-0.61332 -1.37334,-1.54665 -2.44,-2.8 -0.26667,-0.37332 -0.40001,-0.71998 -0.4,-1.04 -0.37334,-1.49331 -0.74667,-2.98665 -1.12,-4.48 -0.37334,-1.73331 -0.60001,-3.25331 -0.68,-4.56 -1.54667,-0.69331 -2.32,-1.71997 -2.32,-3.08 0,-0.74664 0.28,-1.39997 0.84,-1.96 0.56,-0.55997 1.21333,-0.83997 1.96,-0.84 0.77333,3e-5 1.42666,0.28003 1.96,0.84 0.55999,0.56003 0.83999,1.21336 0.84,1.96 -1e-5,0.13336 -0.0267,0.41336 -0.08,0.84 -0.10668,0.53336 -0.16001,0.90669 -0.16,1.12 -1e-5,1.44003 1.06666,3.25336 3.2,5.44 0.18665,-1.75998 0.27999,-3.15997 0.28,-4.2 -10e-6,-1.57331 -0.14668,-2.66664 -0.44,-3.28 -0.13334,-0.26664 -0.28001,-0.4933 -0.44,-0.68 -0.10668,-0.10664 -0.28001,-0.26664 -0.52,-0.48 -0.34668,-0.2133 -0.57334,-0.46664 -0.68,-0.76 -0.16001,-0.2133 -0.24001,-0.62663 -0.24,-1.24 -1e-5,-0.7733 0.27999,-1.42663 0.84,-1.96 0.55999,-0.55996 1.22666,-0.83996 2,-0.84 0.77332,4e-5 1.42665,0.28004 1.96,0.84 0.55999,0.53337 0.83998,1.1867 0.84,1.96 -2e-5,0.1067 -0.0267,0.32003 -0.08,0.64 -0.13335,0.56003 -0.20001,1.0667 -0.2,1.52 -1e-5,1.89336 0.89332,4.74669 2.68,8.56 0.71998,-3.03998 1.07998,-5.45331 1.08,-7.24 -2e-5,-1.30664 -0.25335,-2.5733 -0.76,-3.8 -0.21335,-0.4533 -0.32002,-0.78663 -0.32,-1 -2e-5,-0.7733 0.27998,-1.42663 0.84,-1.96 0.55998,-0.55996 1.21331,-0.83996 1.96,-0.84"
         id="path3881"
         inkscape:connector-curvature="0"
         sodipodi:nodetypes="ccccccccccccccccccccccccccccccccccccsccccsccccccccccccccccsccccccccccccccccccccccccc"
         style="font-style:normal;font-variant:normal;font-weight:normal;font-stretch:normal;font-size:40px;line-height:125%;font-family:'Chess Cases';-inkscape-font-specification:'Chess Cases';text-align:start;letter-spacing:0px;word-spacing:0px;writing-mode:lr-tb;text-anchor:start;fill:#462500;fill-opacity:1;stroke:none" />
      <path
         d="m 124.47739,172.71646 h 0.56 c 0.0533,10e-6 0.14665,-0.0133 0.28,-0.04 0.10665,1e-5 0.19998,1e-5 0.28,0 0.13331,1e-5 0.73331,0.0267 1.8,0.08 0.37331,1e-5 1.19998,0.0533 2.48,0.16 1.03997,0.08 1.86664,0.12001 2.48,0.12 0.6133,1e-5 0.91997,-0.08 0.92,-0.24 -3e-5,-0.0267 -0.0134,-0.0667 -0.04,-0.12 v -0.04 -0.04 c -3e-5,-0.71999 -1.32003,-1.27999 -3.96,-1.68 -1.76002,-0.23999 -3.34669,-0.35999 -4.76,-0.36 -1.41335,1e-5 -3.00002,0.12001 -4.76,0.36 -2.61335,0.37335 -3.92001,0.93335 -3.92,1.68 v 0.08 c -0.0533,0.0267 -0.08,0.0667 -0.08,0.12 -1e-5,0.16001 0.30665,0.24001 0.92,0.24 0.15999,1e-5 0.99999,-0.0533 2.52,-0.16 1.78665,-0.13332 3.18665,-0.19999 4.2,-0.2 0.0533,1e-5 0.14665,1e-5 0.28,0 0.13331,0.0267 0.22665,0.04 0.28,0.04 h 0.52 m 8.16,2.24 c -2.74669,-0.34666 -5.45336,-0.51999 -8.12,-0.52 -2.48002,1e-5 -4.58668,0.10668 -6.32,0.32 -0.64001,0.0533 -1.22668,0.12001 -1.76,0.2 0.39999,0.32001 0.59999,0.97334 0.6,1.96 -1e-5,0.58667 -0.10668,0.96001 -0.32,1.12 2.21332,-0.37333 4.81332,-0.55999 7.8,-0.56 3.01331,1e-5 5.61331,0.18667 7.8,0.56 -0.18669,-0.15999 -0.28003,-0.53333 -0.28,-1.12 -3e-5,-0.98666 0.19997,-1.63999 0.6,-1.96 m -8.12,4.28 c -1.92002,0 -3.81335,0.0933 -5.68,0.28 -1.65335,0.13334 -2.48001,0.50667 -2.48,1.12 -10e-6,0.82667 2.71999,1.24 8.16,1.24 5.43997,0 8.15997,-0.41333 8.16,-1.24 -3e-5,-0.26666 -0.21336,-0.50666 -0.64,-0.72 -0.85336,-0.32 -2.30669,-0.52 -4.36,-0.6 -1.09336,-0.0533 -2.14669,-0.08 -3.16,-0.08 m 0,-26.16 c -0.82669,3e-5 -1.24002,0.41336 -1.24,1.24 -2e-5,0.85336 0.41331,1.28003 1.24,1.28 0.79998,3e-5 1.19998,-0.42664 1.2,-1.28 -2e-5,-0.82664 -0.40002,-1.23997 -1.2,-1.24 m 0,-1.44 c 0.77331,3e-5 1.42664,0.28003 1.96,0.84 0.53331,0.53336 0.79998,1.1867 0.8,1.96 -2e-5,0.24003 -0.13336,0.6667 -0.4,1.28 -0.29336,0.74669 -0.45336,1.20003 -0.48,1.36 -0.13336,0.53336 -0.20002,1.25336 -0.2,2.16 -2e-5,0.66669 0.0933,1.70669 0.28,3.12 0.13331,1.09335 0.39998,2.46669 0.8,4.12 1.78664,-3.78665 2.67997,-6.63998 2.68,-8.56 -3e-5,-0.45331 -0.0667,-0.95997 -0.2,-1.52 -0.0534,-0.29331 -0.08,-0.50664 -0.08,-0.64 -3e-5,-0.7733 0.26664,-1.42664 0.8,-1.96 0.55997,-0.55997 1.21331,-0.83997 1.96,-0.84 0.7733,3e-5 1.43997,0.28003 2,0.84 0.55997,0.53336 0.83997,1.1867 0.84,1.96 -3e-5,0.88003 -0.29336,1.56003 -0.88,2.04 -0.72003,0.45336 -1.16003,1.26669 -1.32,2.44 -0.0534,0.50669 -0.08,1.16002 -0.08,1.96 -3e-5,1.04002 0.08,2.44002 0.24,4.2 2.15997,-2.18665 3.23997,-3.99998 3.24,-5.44 -3e-5,-0.21331 -0.0534,-0.58664 -0.16,-1.12 -0.0534,-0.39998 -0.08,-0.67998 -0.08,-0.84 -3e-5,-0.74664 0.26663,-1.39997 0.8,-1.96 0.55997,-0.55997 1.2133,-0.83997 1.96,-0.84 0.7733,3e-5 1.43996,0.28003 2,0.84 0.55996,0.56003 0.83996,1.21336 0.84,1.96 -4e-5,1.36002 -0.77337,2.38669 -2.32,3.08 -0.0534,0.96002 -0.20004,2.06669 -0.44,3.32 -0.13337,0.77335 -0.48003,2.24002 -1.04,4.4 l -0.32,1.32 c -3e-5,0.48001 -0.53337,1.26668 -1.6,2.36 -1.41336,1.44001 -2.12003,2.56001 -2.12,3.36 -3e-5,0.32001 0.15997,0.81334 0.48,1.48 0.4533,0.93334 0.6933,1.42667 0.72,1.48 0.1333,0.37334 0.19997,0.82667 0.2,1.36 -3e-5,0.08 -0.0134,0.2 -0.04,0.36 -0.0267,0.13334 -0.04,0.24 -0.04,0.32 v 0.08 l 0.04,0.04 c -3e-5,0.82667 -1.7067,1.4 -5.12,1.72 -1.49336,0.13333 -2.68002,0.21333 -3.56,0.24 -0.98669,0.0267 -1.72002,0.04 -2.2,0.04 -0.08,0 -0.33335,-0.0133 -0.76,-0.04 -0.50669,-0.0267 -0.97335,-0.04 -1.4,-0.04 -3.06668,-0.08 -5.45335,-0.34667 -7.16,-0.8 -1.01334,-0.29333 -1.52001,-0.66667 -1.52,-1.12 l 0.04,-0.04 v -0.08 c -1e-5,-0.0267 -0.0133,-0.08 -0.04,-0.16 -1e-5,-0.08 -1e-5,-0.14666 0,-0.2 v -0.32 c -1e-5,-0.74666 0.25332,-1.64 0.76,-2.68 0.37332,-0.77333 0.55999,-1.31999 0.56,-1.64 -1e-5,-0.55999 -0.28001,-1.18666 -0.84,-1.88 -0.56001,-0.61332 -1.37334,-1.54666 -2.44,-2.8 -0.26667,-0.37332 -0.40001,-0.71999 -0.4,-1.04 -0.37334,-1.49332 -0.74667,-2.98665 -1.12,-4.48 -0.37334,-1.73331 -0.60001,-3.25331 -0.68,-4.56 -1.54667,-0.69331 -2.32,-1.71998 -2.32,-3.08 0,-0.74664 0.28,-1.39997 0.84,-1.96 0.56,-0.55997 1.21333,-0.83997 1.96,-0.84 0.77333,3e-5 1.42666,0.28003 1.96,0.84 0.55999,0.56003 0.83999,1.21336 0.84,1.96 -1e-5,0.13336 -0.0267,0.41336 -0.08,0.84 -0.10668,0.53336 -0.16001,0.90669 -0.16,1.12 -1e-5,1.44002 1.06666,3.25335 3.2,5.44 0.18665,-1.75998 0.27999,-3.15998 0.28,-4.2 -10e-6,-1.57331 -0.14668,-2.66664 -0.44,-3.28 -0.13334,-0.26664 -0.28001,-0.49331 -0.44,-0.68 -0.10668,-0.10664 -0.28001,-0.26664 -0.52,-0.48 -0.34668,-0.21331 -0.57334,-0.46664 -0.68,-0.76 -0.16001,-0.21331 -0.24001,-0.62664 -0.24,-1.24 -1e-5,-0.7733 0.27999,-1.42664 0.84,-1.96 0.55999,-0.55997 1.22666,-0.83997 2,-0.84 0.77332,3e-5 1.42665,0.28003 1.96,0.84 0.55999,0.53336 0.83998,1.1867 0.84,1.96 -2e-5,0.10669 -0.0267,0.32003 -0.08,0.64 -0.13335,0.56003 -0.20001,1.06669 -0.2,1.52 -1e-5,1.89336 0.89332,4.74669 2.68,8.56 0.71998,-3.03998 1.07998,-5.45331 1.08,-7.24 -2e-5,-1.30664 -0.25335,-2.57331 -0.76,-3.8 -0.21335,-0.4533 -0.32002,-0.78664 -0.32,-1 -2e-5,-0.7733 0.27998,-1.42664 0.84,-1.96 0.55998,-0.55997 1.21331,-0.83997 1.96,-0.84 m 14.48,6.16 c -0.32003,3e-5 -0.60003,0.12003 -0.84,0.36 -0.24003,0.24003 -0.36003,0.52003 -0.36,0.84 -3e-5,0.34669 0.11997,0.65336 0.36,0.92 0.23997,0.24002 0.51997,0.36002 0.84,0.36 0.82663,2e-5 1.23996,-0.42664 1.24,-1.28 -4e-5,-0.79997 -0.41337,-1.19997 -1.24,-1.2 m -6.56,-3.2 c -0.32003,3e-5 -0.60003,0.13336 -0.84,0.4 -0.24003,0.24003 -0.36003,0.52003 -0.36,0.84 -3e-5,0.34669 0.11997,0.65336 0.36,0.92 0.23997,0.24003 0.51997,0.36003 0.84,0.36 0.8533,3e-5 1.27997,-0.42664 1.28,-1.28 -3e-5,-0.82664 -0.4267,-1.23997 -1.28,-1.24 m -15.92,0 c -0.82668,3e-5 -1.24001,0.41336 -1.24,1.24 -1e-5,0.85336 0.41332,1.28003 1.24,1.28 0.79999,3e-5 1.19999,-0.42664 1.2,-1.28 -10e-6,-0.82664 -0.40001,-1.23997 -1.2,-1.24 m -6.56,3.2 c -0.82667,3e-5 -1.24,0.40003 -1.24,1.2 0,0.85336 0.41333,1.28002 1.24,1.28 0.79999,2e-5 1.19999,-0.42664 1.2,-1.28 -1e-5,-0.31997 -0.12001,-0.59997 -0.36,-0.84 -0.24001,-0.23997 -0.52001,-0.35997 -0.84,-0.36 m 14.56,3.2 c -0.10669,0.64002 -0.22669,1.24002 -0.36,1.8 l -0.32,1.44 c -0.32002,1.30669 -0.69335,2.34668 -1.12,3.12 -0.08,0.16002 -0.21335,0.36002 -0.4,0.6 -0.18668,0.24002 -0.30668,0.45335 -0.36,0.64 -0.0534,-0.08 -0.21335,-0.27998 -0.48,-0.6 -0.21335,-0.23998 -0.48002,-0.53332 -0.8,-0.88 -0.29335,-0.37332 -0.54668,-0.74665 -0.76,-1.12 -0.80001,-1.43998 -1.56001,-3.22665 -2.28,-5.36 0.0533,0.37336 0.08,0.85336 0.08,1.44 -10e-6,0.58669 -0.0934,1.82669 -0.28,3.72 -0.0267,0.29335 -0.0934,0.73335 -0.2,1.32 l -0.36,2.24 c -1.78668,-1.03998 -3.53334,-2.74665 -5.24,-5.12 0.31999,1.68002 0.61333,3.05335 0.88,4.12 0.23999,0.93335 0.37332,1.44001 0.4,1.52 0.21332,0.66668 0.46666,1.05335 0.76,1.16 2.77332,-1.57332 6.38665,-2.35998 10.84,-2.36 4.47998,2e-5 8.0933,0.78668 10.84,2.36 0.50663,-0.15999 1.0533,-1.73332 1.64,-4.72 0.0533,-0.26665 0.1333,-0.66665 0.24,-1.2 l 0.16,-0.88 c -1.7067,2.37335 -3.44003,4.08002 -5.2,5.12 l -0.16,-0.76 c -0.48003,-2.77332 -0.72003,-4.79998 -0.72,-6.08 -3e-5,-0.66664 0.04,-1.29331 0.12,-1.88 -0.72003,2.13335 -1.49336,3.92002 -2.32,5.36 -0.32002,0.56002 -0.84002,1.22668 -1.56,2 -0.26669,0.32002 -0.42669,0.52002 -0.48,0.6 -0.16002,-0.29332 -0.41336,-0.70665 -0.76,-1.24 -0.13336,-0.23998 -0.30669,-0.59998 -0.52,-1.08 -0.18669,-0.50665 -0.49335,-1.67998 -0.92,-3.52 -0.10669,-0.55998 -0.22669,-1.14664 -0.36,-1.76"
         id="path3894"
         inkscape:connector-curvature="0"
         style="font-style:normal;font-variant:normal;font-weight:normal;font-stretch:normal;font-size:40px;line-height:125%;font-family:'Chess Cases';-inkscape-font-specification:'Chess Cases';text-align:start;letter-spacing:0px;word-spacing:0px;writing-mode:lr-tb;text-anchor:start;fill:#ffffff;fill-opacity:1;stroke:none" />
    </g>
  </g>
</svg>
