<?xml version="1.0" encoding="UTF-8" standalone="no"?>
<!-- Created with Inkscape (http://www.inkscape.org/) -->

<svg
   width="16.985559mm"
   height="12.543957mm"
   viewBox="0 0 16.985559 12.543956"
   version="1.1"
   id="svg6468"
   inkscape:version="1.1.1 (3bf5ae0d25, 2021-09-20)"
   sodipodi:docname="brown_king_check.svg"
   xmlns:inkscape="http://www.inkscape.org/namespaces/inkscape"
   xmlns:sodipodi="http://sodipodi.sourceforge.net/DTD/sodipodi-0.dtd"
   xmlns="http://www.w3.org/2000/svg"
   xmlns:svg="http://www.w3.org/2000/svg"
   xmlns:rdf="http://www.w3.org/1999/02/22-rdf-syntax-ns#"
   xmlns:cc="http://creativecommons.org/ns#"
   xmlns:dc="http://purl.org/dc/elements/1.1/">
  <defs
     id="defs6462">
    <filter
       inkscape:collect="always"
       id="filter4054-5-3-9"
       x="-0.19075014"
       width="1.3815003"
       y="-0.17589854"
       height="1.3517971"
       style="color-interpolation-filters:sRGB">
      <feGaussianBlur
         inkscape:collect="always"
         stdDeviation="2.40981"
         id="feGaussianBlur4056-9-7-1" />
    </filter>
  </defs>
  <sodipodi:namedview
     id="base"
     pagecolor="#ffffff"
     bordercolor="#666666"
     borderopacity="1.0"
     inkscape:pageopacity="0.0"
     inkscape:pageshadow="2"
     inkscape:zoom="7.9195959"
     inkscape:cx="12.690041"
     inkscape:cy="0.69447988"
     inkscape:document-units="mm"
     inkscape:current-layer="layer1"
     showgrid="false"
     inkscape:window-width="1920"
     inkscape:window-height="1057"
     inkscape:window-x="-8"
     inkscape:window-y="-8"
     inkscape:window-maximized="1"
     inkscape:pagecheckerboard="1"
     fit-margin-top="0"
     fit-margin-left="0"
     fit-margin-right="0"
     fit-margin-bottom="0"
     width="16.98556mm" />
  <metadata
     id="metadata6465">
    <rdf:RDF>
      <cc:Work
         rdf:about="">
        <dc:format>image/svg+xml</dc:format>
        <dc:type
           rdf:resource="http://purl.org/dc/dcmitype/StillImage" />
      </cc:Work>
    </rdf:RDF>
  </metadata>
  <g
     inkscape:label="Ebene 1"
     inkscape:groupmode="layer"
     id="layer1"
     transform="translate(283.72324,-142.56135)">
    <text
       xml:space="preserve"
       style="font-style:normal;font-weight:normal;font-size:10.5833px;line-height:1.25;font-family:sans-serif;fill:#000000;fill-opacity:1;stroke:none;stroke-width:0.264583"
       x="-279.67084"
       y="138.50339"
       id="text2281"><tspan
         sodipodi:role="line"
         id="tspan2279"
         style="stroke-width:0.264583"
         x="-279.67084"
         y="138.50339" /></text>
    <text
       xml:space="preserve"
       style="font-style:normal;font-variant:normal;font-weight:normal;font-stretch:normal;font-size:10.5833px;line-height:1.25;font-family:Bahnschrift;-inkscape-font-specification:'Bahnschrift, Normal';font-variant-ligatures:normal;font-variant-caps:normal;font-variant-numeric:normal;font-variant-east-asian:normal;fill:#b40000;fill-opacity:1;stroke:none;stroke-width:0.264583"
       x="-273.65726"
       y="153.9382"
       id="text7793"><tspan
         sodipodi:role="line"
         id="tspan7791"
         style="font-style:normal;font-variant:normal;font-weight:normal;font-stretch:normal;font-size:10.5833px;font-family:Bahnschrift;-inkscape-font-specification:'Bahnschrift, Normal';font-variant-ligatures:normal;font-variant-caps:normal;font-variant-numeric:normal;font-variant-east-asian:normal;fill:#b40000;fill-opacity:1;stroke-width:0.264583"
         x="-273.65726"
         y="153.9382">+</tspan></text>
    <g
       id="g4178-5-5-0"
       transform="matrix(0.28222223,0,0,0.28222223,-299.19668,100.8654)">
      <path
         d="m 75.779916,186.43646 c -6.640014,0 -10.013344,-1.11999 -10.12,-3.36 -0.106677,-2.45332 -0.426677,-4.37332 -0.96,-5.76 -0.373342,-0.93332 -1.080008,-2.09332 -2.12,-3.48 -0.720006,-0.95998 -1.186673,-1.67998 -1.4,-2.16 -0.373339,-0.74665 -0.560005,-1.57331 -0.56,-2.48 -5e-6,-1.25331 0.373328,-2.38664 1.12,-3.4 0.74666,-1.03997 1.706659,-1.77331 2.88,-2.2 0.826657,-0.29331 1.573323,-0.42664 2.24,-0.4 1.73332,0.0267 3.373318,0.66669 4.92,1.92 l 0.04,0.04 c -1.6e-5,-0.90664 0.03998,-1.66664 0.12,-2.28 -1.7e-5,-0.23997 0.10665,-0.54664 0.32,-0.92 0.26665,-0.66664 1.039982,-1.43997 2.32,-2.32 v -1.2 l -2.04,-1.2 v -1.8 h 1.84 l 0.64,-1.88 h 1.52 l 0.64,1.88 h 1.84 v 1.8 l -2.04,1.2 v 1.2 c 1.199977,0.80003 1.986643,1.57336 2.36,2.32 0.186643,0.42669 0.279976,0.76003 0.28,1 0.02664,0.21336 0.05331,0.57336 0.08,1.08 0.02664,0.48003 0.03998,0.85336 0.04,1.12 l 0.04,-0.04 c 1.519974,-1.25331 3.159972,-1.89331 4.92,-1.92 1.173303,-0.0266 2.293302,0.29336 3.36,0.96 1.0933,0.66669 1.879965,1.54669 2.36,2.64 0.34663,0.74669 0.51996,1.54669 0.52,2.4 -4e-5,1.41335 -0.64003,2.96002 -1.92,4.64 -0.560033,0.74668 -0.960033,1.30668 -1.2,1.68 -0.400032,0.58668 -0.706698,1.18668 -0.92,1.8 -0.586698,1.44001 -0.920031,3.36001 -1,5.76 -0.05336,2.24001 -3.426694,3.36 -10.12,3.36"
         id="path3879-5-7-5-6"
         inkscape:connector-curvature="0"
         sodipodi:nodetypes="cccccsccccccccccccccccccccccccccccccccc"
         style="font-style:normal;font-variant:normal;font-weight:normal;font-stretch:normal;font-size:40px;line-height:125%;font-family:'Chess Cases';-inkscape-font-specification:'Chess Cases';text-align:start;letter-spacing:0px;word-spacing:0px;writing-mode:lr-tb;text-anchor:start;fill:#000000;fill-opacity:0.501961;stroke:none;filter:url(#filter4054-5-3-9)" />
      <path
         d="m 75.779916,186.43646 c -6.640014,0 -10.013344,-1.11999 -10.12,-3.36 -0.106677,-2.45332 -0.426677,-4.37332 -0.96,-5.76 -0.373342,-0.93332 -1.080008,-2.09332 -2.12,-3.48 -0.720006,-0.95998 -1.186673,-1.67998 -1.4,-2.16 -0.373339,-0.74665 -0.560005,-1.57331 -0.56,-2.48 -5e-6,-1.25331 0.373328,-2.38664 1.12,-3.4 0.74666,-1.03997 1.706659,-1.77331 2.88,-2.2 0.826657,-0.29331 1.573323,-0.42664 2.24,-0.4 1.73332,0.0267 3.373318,0.66669 4.92,1.92 l 0.04,0.04 c -1.6e-5,-0.90664 0.03998,-1.66664 0.12,-2.28 -1.7e-5,-0.23997 0.10665,-0.54664 0.32,-0.92 0.26665,-0.66664 1.039982,-1.43997 2.32,-2.32 v -1.2 l -2.04,-1.2 v -1.8 h 1.84 l 0.64,-1.88 h 1.52 l 0.64,1.88 h 1.84 v 1.8 l -2.04,1.2 v 1.2 c 1.199977,0.80003 1.986643,1.57336 2.36,2.32 0.186643,0.42669 0.279976,0.76003 0.28,1 0.02664,0.21336 0.05331,0.57336 0.08,1.08 0.02664,0.48003 0.03998,0.85336 0.04,1.12 l 0.04,-0.04 c 1.519974,-1.25331 3.159972,-1.89331 4.92,-1.92 1.173303,-0.0266 2.293302,0.29336 3.36,0.96 1.0933,0.66669 1.879965,1.54669 2.36,2.64 0.34663,0.74669 0.51996,1.54669 0.52,2.4 -4e-5,1.41335 -0.64003,2.96002 -1.92,4.64 -0.560033,0.74668 -0.960033,1.30668 -1.2,1.68 -0.400032,0.58668 -0.706698,1.18668 -0.92,1.8 -0.586698,1.44001 -0.920031,3.36001 -1,5.76 -0.05336,2.24001 -3.426694,3.36 -10.12,3.36"
         id="path3879-1-3-9"
         inkscape:connector-curvature="0"
         sodipodi:nodetypes="cccccsccccccccccccccccccccccccccccccccc"
         style="font-style:normal;font-variant:normal;font-weight:normal;font-stretch:normal;font-size:40px;line-height:125%;font-family:'Chess Cases';-inkscape-font-specification:'Chess Cases';text-align:start;letter-spacing:0px;word-spacing:0px;writing-mode:lr-tb;text-anchor:start;fill:#a8733f;fill-opacity:1;stroke:none" />
      <path
         d="m 75.779917,186.43646 c -6.640015,0 -10.013345,-1.12 -10.120001,-3.36 -0.106677,-2.45333 -0.426677,-4.37333 -0.96,-5.76 -0.373342,-0.93332 -1.080008,-2.09332 -2.12,-3.48 -0.720006,-0.95999 -1.186673,-1.67999 -1.4,-2.16 -0.373339,-0.74665 -0.560005,-1.57332 -0.56,-2.48 -5e-6,-1.25331 0.373328,-2.38665 1.12,-3.4 0.74666,-1.03998 1.706659,-1.77331 2.88,-2.2 0.826657,-0.29331 1.573323,-0.42664 2.24,-0.4 1.73332,0.0267 3.373318,0.66669 4.92,1.92 l 0.04,0.04 c -1.6e-5,-0.90664 0.03998,-1.66664 0.12,-2.28 -1.7e-5,-0.23998 0.10665,-0.54664 0.32,-0.92 0.26665,-0.66664 1.039982,-1.43997 2.320001,-2.32 v -1.2 l -2.040001,-1.2 v -1.8 h 1.840001 l 0.64,-1.88 h 1.52 l 0.64,1.88 h 1.84 v 1.8 l -2.04,1.2 v 1.2 c 1.19998,0.80003 1.98664,1.57336 2.36,2.32 0.18664,0.42669 0.27997,0.76002 0.28,1 0.0266,0.21336 0.0533,0.57336 0.08,1.08 0.0266,0.48002 0.04,0.85335 0.04,1.12 l 0.04,-0.04 c 1.51997,-1.25331 3.15997,-1.89331 4.92,-1.92 1.1733,-0.0266 2.2933,0.29336 3.36,0.96 1.0933,0.66669 1.87996,1.54669 2.36,2.64 0.34663,0.74669 0.51996,1.54668 0.52,2.4 -4e-5,1.41335 -0.64003,2.96001 -1.92,4.64 -0.56003,0.74668 -0.96003,1.30668 -1.2,1.68 -0.40003,0.58668 -0.7067,1.18668 -0.92,1.8 -0.5867,1.44001 -0.92003,3.36001 -1,5.76 -0.0534,2.24 -3.4267,3.36 -10.12,3.36 m 0,-16.84 c 0.0267,-0.0533 0.13331,-0.22665 0.32,-0.52 0.45331,-0.63998 0.81331,-1.21331 1.08,-1.72 0.26664,-0.50665 0.46664,-0.99998 0.6,-1.48 0.08,-0.71998 0.11998,-1.19998 0.12,-1.44 -2e-5,-1.97331 -0.69336,-2.95998 -2.08,-2.96 -1.44002,2e-5 -2.160019,0.98669 -2.160001,2.96 -1.8e-5,0.34669 0.03998,0.82669 0.120001,1.44 0.26665,0.93335 0.82665,2.00002 1.68,3.2 0.21331,0.29335 0.31998,0.46668 0.32,0.52 m 13.36,-0.08 c -4e-5,-1.49331 -0.5067,-2.65331 -1.52,-3.48 -0.85337,-0.69331 -1.8267,-1.03998 -2.92,-1.04 -1.4667,2e-5 -3.02669,0.73335 -4.68,2.2 -1.97336,1.70668 -3.08002,4.01335 -3.32,6.92 -2e-5,0.24001 0.61331,0.49335 1.84,0.76 1.03997,0.21334 2.78664,0.34668 5.24,0.4 0.42664,0.0267 0.8133,0.04 1.16,0.04 h 0.16 0.72 c 0.1333,-0.21332 0.31997,-0.46666 0.56,-0.76 0.26663,-0.31999 0.58663,-0.70665 0.96,-1.16 0.71997,-1.03999 1.22663,-1.90665 1.52,-2.6 0.18663,-0.50665 0.27996,-0.93332 0.28,-1.28 m -13.36,6.72 c -0.66669,0.29334 -1.86669,0.52001 -3.600001,0.68 -0.906683,0.0533 -2.266681,0.14668 -4.08,0.28 l -1.48,0.12 c 0.346655,1.30667 0.573322,2.70667 0.68,4.2 2.319986,-0.74666 5.14665,-1.11999 8.480001,-1.12 3.35997,1e-5 6.19997,0.37334 8.52,1.12 0.08,-1.62666 0.2933,-3.02666 0.64,-4.2 l -1.44,-0.12 c -0.93336,-0.0533 -2.30669,-0.14666 -4.12,-0.28 -0.96002,-0.10666 -1.57336,-0.17332 -1.84,-0.2 -0.69336,-0.10666 -1.28002,-0.26666 -1.76,-0.48 m -13.360001,-6.72 c -7e-6,0.66668 0.346659,1.56002 1.04,2.68 0.346658,0.53335 0.626658,0.93335 0.84,1.2 l 0.4,0.56 c 0.346657,0.37335 0.693323,0.82668 1.04,1.36 h 0.88 c 1.386654,1e-5 3.133319,-0.10666 5.24,-0.32 2.026651,-0.18666 3.039981,-0.47999 3.040001,-0.88 -0.26669,-2.90665 -1.386686,-5.21332 -3.360001,-6.92 -1.626681,-1.46665 -3.18668,-2.19998 -4.68,-2.2 -0.453344,2e-5 -0.946677,0.0933 -1.48,0.28 -1.146676,0.29335 -1.986675,1.02669 -2.52,2.2 -0.293341,0.61335 -0.440007,1.29335 -0.44,2.04 m 13.360001,15.12 c 1.65331,0 3.29331,-0.10666 4.92,-0.32 1.35997,-0.16 2.03997,-0.37333 2.04,-0.64 -3e-5,-0.42666 -0.61336,-0.73333 -1.84,-0.92 -1.78669,-0.24 -3.48002,-0.36 -5.08,-0.36 -1.62669,0 -3.333351,0.12 -5.120001,0.36 -1.253347,0.18667 -1.880013,0.49334 -1.88,0.92 -1.3e-5,0.37334 1.426652,0.66667 4.28,0.88 0.826651,0.0533 1.719981,0.08 2.680001,0.08"
         id="path3892-4-9-5"
         inkscape:connector-curvature="0"
         style="font-style:normal;font-variant:normal;font-weight:normal;font-stretch:normal;font-size:40px;line-height:125%;font-family:'Chess Cases';-inkscape-font-specification:'Chess Cases';text-align:start;letter-spacing:0px;word-spacing:0px;writing-mode:lr-tb;text-anchor:start;fill:#000000;fill-opacity:1;stroke:none" />
    </g>
  </g>
</svg>
